<?xml version="1.0" standalone="no"?>
<!DOCTYPE svg PUBLIC "-//W3C//DTD SVG 20010904//EN"
 "http://www.w3.org/TR/2001/REC-SVG-20010904/DTD/svg10.dtd">
<svg version="1.0" xmlns="http://www.w3.org/2000/svg"
 width="280.000000pt" height="43.000000pt" viewBox="0 0 280.000000 43.000000"
 preserveAspectRatio="xMidYMid meet">
<metadata>
Created by potrace 1.15, written by Peter Selinger 2001-2017
</metadata>
<g transform="translate(0.000000,43.000000) scale(0.100000,-0.100000)"
fill="#000000" stroke="none">
<path d="M356 413 c-2 -10 -23 -101 -46 -203 -23 -102 -43 -191 -45 -197 -3
-9 7 -13 28 -13 l32 0 43 193 c24 105 46 202 49 215 4 19 1 22 -25 22 -21 0
-32 -6 -36 -17z"/>
<path d="M1120 240 l0 -190 25 0 25 0 0 190 0 190 -25 0 -25 0 0 -190z"/>
<path d="M895 399 c-21 -33 -123 -335 -116 -342 12 -12 42 -5 52 13 5 8 13 27
19 43 9 26 13 27 74 27 l65 0 20 -45 c16 -36 25 -45 45 -45 15 0 26 6 26 13 0
12 -36 115 -106 305 -13 36 -20 42 -44 42 -16 0 -32 -5 -35 -11z"/>
<path d="M1492 233 l3 -178 28 -3 27 -3 0 80 0 81 70 0 69 0 3 -77 c3 -77 3
-78 31 -81 l27 -3 0 180 0 181 -30 0 -30 0 0 -75 0 -75 -70 0 -70 0 0 75 0 75
-30 0 -30 0 2 -177z"/>
<path d="M120 326 l-115 -63 -3 -49 -2 -49 114 -62 c64 -35 118 -63 121 -63 3
0 5 24 5 53 l0 52 -61 34 -62 34 62 34 61 35 0 54 c0 30 -1 54 -2 54 -2 -1
-55 -29 -118 -64z"/>
<path d="M450 336 l0 -56 48 -24 c80 -43 80 -40 13 -77 l-61 -34 0 -52 c0 -29
3 -53 6 -53 4 0 60 30 125 66 l119 66 0 41 c0 47 13 37 -152 126 l-98 52 0
-55z"/>
<path d="M1240 185 l0 -136 28 3 27 3 0 130 0 130 -27 3 -28 3 0 -136z"/>
<path d="M1848 291 c-30 -26 -33 -35 -36 -100 -4 -70 -4 -71 31 -106 31 -31
41 -35 86 -35 60 0 101 17 101 41 0 16 -7 18 -63 12 -68 -6 -97 8 -97 47 0 17
9 20 83 22 l82 3 -1 44 c-1 37 -7 49 -33 73 -44 40 -108 40 -153 -1z"/>
<path d="M2106 299 c-19 -15 -26 -30 -26 -53 0 -37 17 -55 75 -83 27 -12 40
-25 40 -38 0 -17 -7 -20 -40 -19 -22 0 -48 4 -57 8 -29 13 -36 -23 -9 -46 50
-40 152 -12 163 45 8 40 -9 65 -61 91 -27 14 -53 31 -57 37 -9 15 25 41 44 34
50 -19 62 -17 62 8 0 14 -7 28 -16 31 -34 13 -92 6 -118 -15z"/>
<path d="M2323 308 c-15 -7 -23 -20 -23 -36 0 -21 3 -23 23 -17 77 25 116 16
117 -27 0 -14 -9 -18 -40 -18 -46 0 -95 -21 -104 -45 -3 -9 -6 -29 -6 -45 0
-54 77 -88 132 -59 15 8 22 8 28 -1 4 -7 16 -10 26 -8 16 3 19 14 22 73 7 153
-15 195 -102 194 -28 0 -61 -5 -73 -11z"/>
<path d="M2560 184 l0 -135 28 3 c27 3 27 3 32 96 4 79 8 96 25 108 11 8 30
12 43 9 19 -5 22 -2 22 25 0 27 -3 30 -32 30 -17 0 -40 -7 -50 -17 -17 -15
-18 -15 -18 0 0 11 -8 17 -25 17 l-25 0 0 -136z"/>
</g>
</svg>
